<?xml version="1.0" encoding="UTF-8" standalone="no"?>
<!-- Created with Inkscape (http://www.inkscape.org/) -->

<svg
   width="128.0px"
   height="128.0px"
   viewBox="0 0 128.0 128.0"
   version="1.1"
   id="SVGRoot"
   sodipodi:docname="cpu-symbolic.svg"
   inkscape:version="1.2.2 (1:1.2.2+202212051550+b0a8486541)"
   xmlns:inkscape="http://www.inkscape.org/namespaces/inkscape"
   xmlns:sodipodi="http://sodipodi.sourceforge.net/DTD/sodipodi-0.dtd"
   xmlns="http://www.w3.org/2000/svg"
   xmlns:svg="http://www.w3.org/2000/svg">
  <sodipodi:namedview
     id="namedview1024"
     pagecolor="#505050"
     bordercolor="#eeeeee"
     borderopacity="1"
     inkscape:pageshadow="0"
     inkscape:pageopacity="0"
     inkscape:pagecheckerboard="0"
     inkscape:document-units="px"
     showgrid="true"
     inkscape:zoom="2.6821292"
     inkscape:cx="37.843069"
     inkscape:cy="63.755319"
     inkscape:window-width="1280"
     inkscape:window-height="684"
     inkscape:window-x="0"
     inkscape:window-y="36"
     inkscape:window-maximized="1"
     inkscape:current-layer="layer2"
     inkscape:showpageshadow="2"
     inkscape:deskcolor="#505050">
    <inkscape:grid
       type="xygrid"
       id="grid1030"
       empspacing="8"
       visible="true" />
  </sodipodi:namedview>
  <defs
     id="defs1019" />
  <g
     inkscape:groupmode="layer"
     id="layer2"
     inkscape:label="Surrounds"
     style="display:inline">
    <path
       style="fill:#808080;fill-opacity:1;stroke:none;stroke-width:1px;stroke-linecap:butt;stroke-linejoin:miter;stroke-opacity:1;font-variation-settings:normal;opacity:1;vector-effect:none;stroke-miterlimit:4;stroke-dasharray:none;stroke-dashoffset:0;-inkscape-stroke:none;stop-color:#000000;stop-opacity:1"
       d="m 96,99 v -6 c 0,0 3,0 7,0 4,0 4,6 0,6 -4,0 -7,0 -7,0 z"
       id="path536" />
    <path
       style="display:inline;fill:#808080;fill-opacity:1;stroke:none;stroke-width:1px;stroke-linecap:butt;stroke-linejoin:miter;stroke-opacity:1;font-variation-settings:normal;opacity:1;vector-effect:none;stroke-miterlimit:4;stroke-dasharray:none;stroke-dashoffset:0;-inkscape-stroke:none;stop-color:#000000;stop-opacity:1"
       d="m 96,83 v -6 c 0,0 3,0 7,0 4,0 4,6 0,6 -4,0 -7,0 -7,0 z"
       id="path536-3" />
    <path
       style="display:inline;fill:#808080;fill-opacity:1;stroke:none;stroke-width:1px;stroke-linecap:butt;stroke-linejoin:miter;stroke-opacity:1;font-variation-settings:normal;opacity:1;vector-effect:none;stroke-miterlimit:4;stroke-dasharray:none;stroke-dashoffset:0;-inkscape-stroke:none;stop-color:#000000;stop-opacity:1"
       d="m 96,67 v -6 c 0,0 3,0 7,0 4,0 4,6 0,6 -4,0 -7,0 -7,0 z"
       id="path536-3-0" />
    <path
       style="display:inline;fill:#808080;fill-opacity:1;stroke:none;stroke-width:1px;stroke-linecap:butt;stroke-linejoin:miter;stroke-opacity:1;font-variation-settings:normal;opacity:1;vector-effect:none;stroke-miterlimit:4;stroke-dasharray:none;stroke-dashoffset:0;-inkscape-stroke:none;stop-color:#000000;stop-opacity:1"
       d="m 96,51 v -6 c 0,0 3,0 7,0 4,0 4,6 0,6 -4,0 -7,0 -7,0 z"
       id="path536-3-5" />
    <path
       style="display:inline;fill:#808080;fill-opacity:1;stroke:none;stroke-width:1px;stroke-linecap:butt;stroke-linejoin:miter;stroke-opacity:1;font-variation-settings:normal;opacity:1;vector-effect:none;stroke-miterlimit:4;stroke-dasharray:none;stroke-dashoffset:0;-inkscape-stroke:none;stop-color:#000000;stop-opacity:1"
       d="m 96,35 v -6 c 0,0 3,0 7,0 4,0 4,6 0,6 -4,0 -7,0 -7,0 z"
       id="path536-3-3" />
    <path
       style="display:inline;fill:#808080;fill-opacity:1;stroke:none;stroke-width:1px;stroke-linecap:butt;stroke-linejoin:miter;stroke-opacity:1;font-variation-settings:normal;opacity:1;vector-effect:none;stroke-miterlimit:4;stroke-dasharray:none;stroke-dashoffset:0;-inkscape-stroke:none;stop-color:#000000;stop-opacity:1"
       d="m 86,16 h -6 c 0,0 0,-3 0,-7 0,-4 6,-4 6,0 0,4 0,7 0,7 z"
       id="path536-3-56" />
    <path
       style="display:inline;fill:#808080;fill-opacity:1;stroke:none;stroke-width:1px;stroke-linecap:butt;stroke-linejoin:miter;stroke-opacity:1;font-variation-settings:normal;opacity:1;vector-effect:none;stroke-miterlimit:4;stroke-dasharray:none;stroke-dashoffset:0;-inkscape-stroke:none;stop-color:#000000;stop-opacity:1"
       d="m 67,16 h -6 c 0,0 0,-3 0,-7 0,-4 6,-4 6,0 0,4 0,7 0,7 z"
       id="path536-3-56-2" />
    <path
       style="display:inline;fill:#808080;fill-opacity:1;stroke:none;stroke-width:1px;stroke-linecap:butt;stroke-linejoin:miter;stroke-opacity:1;font-variation-settings:normal;opacity:1;vector-effect:none;stroke-miterlimit:4;stroke-dasharray:none;stroke-dashoffset:0;-inkscape-stroke:none;stop-color:#000000;stop-opacity:1"
       d="m 48,16 h -6 c 0,0 0,-3 0,-7 0,-4 6,-4 6,0 0,4 0,7 0,7 z"
       id="path536-3-56-1" />
    <path
       style="display:inline;fill:#808080;fill-opacity:1;stroke:none;stroke-width:1px;stroke-linecap:butt;stroke-linejoin:miter;stroke-opacity:1;font-variation-settings:normal;opacity:1;vector-effect:none;stroke-miterlimit:4;stroke-dasharray:none;stroke-dashoffset:0;-inkscape-stroke:none;stop-color:#000000;stop-opacity:1"
       d="m 32,29 v 6 c 0,0 -3,0 -7,0 -4,0 -4,-6 0,-6 4,0 7,0 7,0 z"
       id="path536-3-56-27" />
    <path
       style="display:inline;fill:#808080;fill-opacity:1;stroke:none;stroke-width:1px;stroke-linecap:butt;stroke-linejoin:miter;stroke-opacity:1;font-variation-settings:normal;opacity:1;vector-effect:none;stroke-miterlimit:4;stroke-dasharray:none;stroke-dashoffset:0;-inkscape-stroke:none;stop-color:#000000;stop-opacity:1"
       d="m 32,45 v 6 c 0,0 -3,0 -7,0 -4,0 -4,-6 0,-6 4,0 7,0 7,0 z"
       id="path536-3-56-27-9" />
    <path
       style="display:inline;fill:#808080;fill-opacity:1;stroke:none;stroke-width:1px;stroke-linecap:butt;stroke-linejoin:miter;stroke-opacity:1;font-variation-settings:normal;opacity:1;vector-effect:none;stroke-miterlimit:4;stroke-dasharray:none;stroke-dashoffset:0;-inkscape-stroke:none;stop-color:#000000;stop-opacity:1"
       d="m 32,77 v 6 c 0,0 -3,0 -7,0 -4,0 -4,-6 0,-6 4,0 7,0 7,0 z"
       id="path536-3-56-27-0" />
    <path
       style="display:inline;fill:#808080;fill-opacity:1;stroke:none;stroke-width:1px;stroke-linecap:butt;stroke-linejoin:miter;stroke-opacity:1;font-variation-settings:normal;opacity:1;vector-effect:none;stroke-miterlimit:4;stroke-dasharray:none;stroke-dashoffset:0;-inkscape-stroke:none;stop-color:#000000;stop-opacity:1"
       d="m 32,61 v 6 c 0,0 -3,0 -7,0 -4,0 -4,-6 0,-6 4,0 7,0 7,0 z"
       id="path536-3-56-27-0-2" />
    <path
       style="display:inline;fill:#808080;fill-opacity:1;stroke:none;stroke-width:1px;stroke-linecap:butt;stroke-linejoin:miter;stroke-opacity:1;font-variation-settings:normal;opacity:1;vector-effect:none;stroke-miterlimit:4;stroke-dasharray:none;stroke-dashoffset:0;-inkscape-stroke:none;stop-color:#000000;stop-opacity:1"
       d="m 32,93 v 6 c 0,0 -3,0 -7,0 -4,0 -4,-6 0,-6 4,0 7,0 7,0 z"
       id="path536-3-56-27-62" />
    <path
       style="display:inline;fill:#808080;fill-opacity:1;stroke:none;stroke-width:1px;stroke-linecap:butt;stroke-linejoin:miter;stroke-opacity:1;font-variation-settings:normal;opacity:1;vector-effect:none;stroke-miterlimit:4;stroke-dasharray:none;stroke-dashoffset:0;-inkscape-stroke:none;stop-color:#000000;stop-opacity:1"
       d="m 42,112 h 6 c 0,0 0,3 0,7 0,4 -6,4 -6,0 0,-4 0,-7 0,-7 z"
       id="path536-3-56-27-61" />
    <path
       style="display:inline;fill:#808080;fill-opacity:1;stroke:none;stroke-width:1px;stroke-linecap:butt;stroke-linejoin:miter;stroke-opacity:1;font-variation-settings:normal;opacity:1;vector-effect:none;stroke-miterlimit:4;stroke-dasharray:none;stroke-dashoffset:0;-inkscape-stroke:none;stop-color:#000000;stop-opacity:1"
       d="m 61,112 h 6 c 0,0 0,3 0,7 0,4 -6,4 -6,0 0,-4 0,-7 0,-7 z"
       id="path536-3-56-27-61-8" />
    <path
       style="display:inline;fill:#808080;fill-opacity:1;stroke:none;stroke-width:1px;stroke-linecap:butt;stroke-linejoin:miter;stroke-opacity:1;font-variation-settings:normal;opacity:1;vector-effect:none;stroke-miterlimit:4;stroke-dasharray:none;stroke-dashoffset:0;-inkscape-stroke:none;stop-color:#000000;stop-opacity:1"
       d="m 80,112 h 6 c 0,0 0,3 0,7 0,4 -6,4 -6,0 0,-4 0,-7 0,-7 z"
       id="path536-3-56-27-61-9" />
    <path
       d="m 63.324,40.548 c -2.132,0 -4.148,0.244 -6.048,0.732 a 23.412,23.412 0 0 0 -4.668,1.784 l -2.632,1.832 2.264,3.504 1.808,-1.344 c 2.752,-1.4 5.576,-2.16 8.464,-2.16 2.428,0 4.36,0.64 5.684,1.964 1.308,1.264 1.972,2.948 1.972,4.944 0,1.244 -0.292,2.412 -0.868,3.472 -0.52,1.032 -1.196,2.012 -2.032,2.944 -0.82,0.908 -1.68,1.82 -2.592,2.728 v 0.004 a 25.568,25.568 0 0 0 -2.532,2.8 L 62.14,63.76 a 14.64,14.64 0 0 0 -1.968,3.144 9.512,9.512 0 0 0 -0.708,3.74 c 0,0.832 0.096,1.612 0.224,2.376 H 64.04 C 64.036,72.928 64,72.844 64,72.748 V 72 c 0,-1.548 0.308,-2.96 0.928,-4.2 0.6,-1.256 1.344,-2.396 2.228,-3.42 l 0.008,-0.008 c 0.872,-1.056 1.832,-2.06 2.884,-3.02 a 28.92,28.92 0 0 0 2.8,-2.936 c 0.84,-1.012 1.536,-2.088 2.108,-3.228 0.552,-1.152 0.836,-2.452 0.836,-3.928 A 12.24,12.24 0 0 0 75.204,47.604 L 75.2,47.596 V 47.588 A 8.16,8.16 0 0 0 73.272,44.12 C 72.336,43.1 71.064,42.256 69.444,41.6 v -0.008 c -1.54,-0.688 -3.58,-1.044 -6.112,-1.044 z M 62.244,80.4 c -1.304,0 -2.248,0.4 -2.972,1.2 a 4.1,4.1 0 0 0 -1.1,2.872 c 0,1.116 0.356,2.048 1.1,2.872 0.72,0.8 1.668,1.2 2.968,1.2 1.3,0 2.248,-0.396 2.972,-1.2 0.744,-0.824 1.1,-1.76 1.1,-2.872 0,-1.12 -0.356,-2.048 -1.1,-2.872 -0.72,-0.8 -1.672,-1.2 -2.972,-1.2 z"
       font-family="Ubuntu"
       font-size="72.036px"
       font-weight="500"
       letter-spacing="0"
       style="line-height:125%;-inkscape-font-specification:'Ubuntu Medium';text-align:center;fill:#999999;stroke-width:4;fill-opacity:1"
       text-anchor="middle"
       word-spacing="0"
       id="path302" />
  </g>
  <g
     inkscape:label="Top"
     inkscape:groupmode="layer"
     id="layer1"
     style="display:inline">
    <path
       style="fill:#808080;stroke:none;stroke-width:1px;stroke-linecap:butt;stroke-linejoin:miter;stroke-opacity:1;font-variation-settings:normal;opacity:1;vector-effect:none;fill-opacity:1;stroke-miterlimit:4;stroke-dasharray:none;stroke-dashoffset:0;-inkscape-stroke:none;stop-color:#000000;stop-opacity:1"
       d="m 40,24 h 24 v -8 c 0,0 -24,0 -28,0 -4,0 -4,4 -4,4 0,0 0,84 0,88 0,4 4,4 4,4 0,0 52,0 56,0 4,0 4,-4 4,-4 0,0 0,-84 0,-88 0,-4 -4,-4 -4,-4 H 64 v 8 h 24 v 80 H 40 Z"
       id="path1461" />
  </g>
</svg>
