<?xml version="1.0" encoding="UTF-8" standalone="no"?>
<!-- Created with Inkscape (http://www.inkscape.org/) -->

<svg
   width="128.0px"
   height="128.0px"
   viewBox="0 0 128.0 128.0"
   version="1.1"
   id="SVGRoot"
   sodipodi:docname="cpu-symbolic.svg"
   inkscape:version="1.2 (1:1.2+202206011327+fc4e4096c5)"
   xmlns:inkscape="http://www.inkscape.org/namespaces/inkscape"
   xmlns:sodipodi="http://sodipodi.sourceforge.net/DTD/sodipodi-0.dtd"
   xmlns="http://www.w3.org/2000/svg"
   xmlns:svg="http://www.w3.org/2000/svg">
  <sodipodi:namedview
     id="namedview1024"
     pagecolor="#505050"
     bordercolor="#eeeeee"
     borderopacity="1"
     inkscape:pageshadow="0"
     inkscape:pageopacity="0"
     inkscape:pagecheckerboard="0"
     inkscape:document-units="px"
     showgrid="true"
     inkscape:zoom="2.828427"
     inkscape:cx="61.164739"
     inkscape:cy="70.357128"
     inkscape:window-width="1280"
     inkscape:window-height="684"
     inkscape:window-x="0"
     inkscape:window-y="36"
     inkscape:window-maximized="1"
     inkscape:current-layer="layer2"
     inkscape:showpageshadow="2"
     inkscape:deskcolor="#505050">
    <inkscape:grid
       type="xygrid"
       id="grid1030"
       empspacing="8"
       visible="true" />
  </sodipodi:namedview>
  <defs
     id="defs1019" />
  <g
     inkscape:groupmode="layer"
     id="layer2"
     inkscape:label="Surrounds"
     style="display:inline">
    <path
       style="fill:#808080;fill-opacity:1;stroke:none;stroke-width:1px;stroke-linecap:butt;stroke-linejoin:miter;stroke-opacity:1;font-variation-settings:normal;opacity:1;vector-effect:none;stroke-miterlimit:4;stroke-dasharray:none;stroke-dashoffset:0;-inkscape-stroke:none;stop-color:#000000;stop-opacity:1"
       d="m 96,99 v -6 c 0,0 3,0 7,0 4,0 4,6 0,6 -4,0 -7,0 -7,0 z"
       id="path536" />
    <path
       style="display:inline;fill:#808080;fill-opacity:1;stroke:none;stroke-width:1px;stroke-linecap:butt;stroke-linejoin:miter;stroke-opacity:1;font-variation-settings:normal;opacity:1;vector-effect:none;stroke-miterlimit:4;stroke-dasharray:none;stroke-dashoffset:0;-inkscape-stroke:none;stop-color:#000000;stop-opacity:1"
       d="m 96,83 v -6 c 0,0 3,0 7,0 4,0 4,6 0,6 -4,0 -7,0 -7,0 z"
       id="path536-3" />
    <path
       style="display:inline;fill:#808080;fill-opacity:1;stroke:none;stroke-width:1px;stroke-linecap:butt;stroke-linejoin:miter;stroke-opacity:1;font-variation-settings:normal;opacity:1;vector-effect:none;stroke-miterlimit:4;stroke-dasharray:none;stroke-dashoffset:0;-inkscape-stroke:none;stop-color:#000000;stop-opacity:1"
       d="m 96,67 v -6 c 0,0 3,0 7,0 4,0 4,6 0,6 -4,0 -7,0 -7,0 z"
       id="path536-3-0" />
    <path
       style="display:inline;fill:#808080;fill-opacity:1;stroke:none;stroke-width:1px;stroke-linecap:butt;stroke-linejoin:miter;stroke-opacity:1;font-variation-settings:normal;opacity:1;vector-effect:none;stroke-miterlimit:4;stroke-dasharray:none;stroke-dashoffset:0;-inkscape-stroke:none;stop-color:#000000;stop-opacity:1"
       d="m 96,51 v -6 c 0,0 3,0 7,0 4,0 4,6 0,6 -4,0 -7,0 -7,0 z"
       id="path536-3-5" />
    <path
       style="display:inline;fill:#808080;fill-opacity:1;stroke:none;stroke-width:1px;stroke-linecap:butt;stroke-linejoin:miter;stroke-opacity:1;font-variation-settings:normal;opacity:1;vector-effect:none;stroke-miterlimit:4;stroke-dasharray:none;stroke-dashoffset:0;-inkscape-stroke:none;stop-color:#000000;stop-opacity:1"
       d="m 96,35 v -6 c 0,0 3,0 7,0 4,0 4,6 0,6 -4,0 -7,0 -7,0 z"
       id="path536-3-3" />
    <path
       style="display:inline;fill:#808080;fill-opacity:1;stroke:none;stroke-width:1px;stroke-linecap:butt;stroke-linejoin:miter;stroke-opacity:1;font-variation-settings:normal;opacity:1;vector-effect:none;stroke-miterlimit:4;stroke-dasharray:none;stroke-dashoffset:0;-inkscape-stroke:none;stop-color:#000000;stop-opacity:1"
       d="m 86,16 h -6 c 0,0 0,-3 0,-7 0,-4 6,-4 6,0 0,4 0,7 0,7 z"
       id="path536-3-56" />
    <path
       style="display:inline;fill:#808080;fill-opacity:1;stroke:none;stroke-width:1px;stroke-linecap:butt;stroke-linejoin:miter;stroke-opacity:1;font-variation-settings:normal;opacity:1;vector-effect:none;stroke-miterlimit:4;stroke-dasharray:none;stroke-dashoffset:0;-inkscape-stroke:none;stop-color:#000000;stop-opacity:1"
       d="m 67,16 h -6 c 0,0 0,-3 0,-7 0,-4 6,-4 6,0 0,4 0,7 0,7 z"
       id="path536-3-56-2" />
    <path
       style="display:inline;fill:#808080;fill-opacity:1;stroke:none;stroke-width:1px;stroke-linecap:butt;stroke-linejoin:miter;stroke-opacity:1;font-variation-settings:normal;opacity:1;vector-effect:none;stroke-miterlimit:4;stroke-dasharray:none;stroke-dashoffset:0;-inkscape-stroke:none;stop-color:#000000;stop-opacity:1"
       d="m 48,16 h -6 c 0,0 0,-3 0,-7 0,-4 6,-4 6,0 0,4 0,7 0,7 z"
       id="path536-3-56-1" />
    <path
       style="display:inline;fill:#808080;fill-opacity:1;stroke:none;stroke-width:1px;stroke-linecap:butt;stroke-linejoin:miter;stroke-opacity:1;font-variation-settings:normal;opacity:1;vector-effect:none;stroke-miterlimit:4;stroke-dasharray:none;stroke-dashoffset:0;-inkscape-stroke:none;stop-color:#000000;stop-opacity:1"
       d="m 32,29 v 6 c 0,0 -3,0 -7,0 -4,0 -4,-6 0,-6 4,0 7,0 7,0 z"
       id="path536-3-56-27" />
    <path
       style="display:inline;fill:#808080;fill-opacity:1;stroke:none;stroke-width:1px;stroke-linecap:butt;stroke-linejoin:miter;stroke-opacity:1;font-variation-settings:normal;opacity:1;vector-effect:none;stroke-miterlimit:4;stroke-dasharray:none;stroke-dashoffset:0;-inkscape-stroke:none;stop-color:#000000;stop-opacity:1"
       d="m 32,45 v 6 c 0,0 -3,0 -7,0 -4,0 -4,-6 0,-6 4,0 7,0 7,0 z"
       id="path536-3-56-27-9" />
    <path
       style="display:inline;fill:#808080;fill-opacity:1;stroke:none;stroke-width:1px;stroke-linecap:butt;stroke-linejoin:miter;stroke-opacity:1;font-variation-settings:normal;opacity:1;vector-effect:none;stroke-miterlimit:4;stroke-dasharray:none;stroke-dashoffset:0;-inkscape-stroke:none;stop-color:#000000;stop-opacity:1"
       d="m 32,77 v 6 c 0,0 -3,0 -7,0 -4,0 -4,-6 0,-6 4,0 7,0 7,0 z"
       id="path536-3-56-27-0" />
    <path
       style="display:inline;fill:#808080;fill-opacity:1;stroke:none;stroke-width:1px;stroke-linecap:butt;stroke-linejoin:miter;stroke-opacity:1;font-variation-settings:normal;opacity:1;vector-effect:none;stroke-miterlimit:4;stroke-dasharray:none;stroke-dashoffset:0;-inkscape-stroke:none;stop-color:#000000;stop-opacity:1"
       d="m 32,61 v 6 c 0,0 -3,0 -7,0 -4,0 -4,-6 0,-6 4,0 7,0 7,0 z"
       id="path536-3-56-27-0-2" />
    <path
       style="display:inline;fill:#808080;fill-opacity:1;stroke:none;stroke-width:1px;stroke-linecap:butt;stroke-linejoin:miter;stroke-opacity:1;font-variation-settings:normal;opacity:1;vector-effect:none;stroke-miterlimit:4;stroke-dasharray:none;stroke-dashoffset:0;-inkscape-stroke:none;stop-color:#000000;stop-opacity:1"
       d="m 32,93 v 6 c 0,0 -3,0 -7,0 -4,0 -4,-6 0,-6 4,0 7,0 7,0 z"
       id="path536-3-56-27-62" />
    <path
       style="display:inline;fill:#808080;fill-opacity:1;stroke:none;stroke-width:1px;stroke-linecap:butt;stroke-linejoin:miter;stroke-opacity:1;font-variation-settings:normal;opacity:1;vector-effect:none;stroke-miterlimit:4;stroke-dasharray:none;stroke-dashoffset:0;-inkscape-stroke:none;stop-color:#000000;stop-opacity:1"
       d="m 42,112 h 6 c 0,0 0,3 0,7 0,4 -6,4 -6,0 0,-4 0,-7 0,-7 z"
       id="path536-3-56-27-61" />
    <path
       style="display:inline;fill:#808080;fill-opacity:1;stroke:none;stroke-width:1px;stroke-linecap:butt;stroke-linejoin:miter;stroke-opacity:1;font-variation-settings:normal;opacity:1;vector-effect:none;stroke-miterlimit:4;stroke-dasharray:none;stroke-dashoffset:0;-inkscape-stroke:none;stop-color:#000000;stop-opacity:1"
       d="m 61,112 h 6 c 0,0 0,3 0,7 0,4 -6,4 -6,0 0,-4 0,-7 0,-7 z"
       id="path536-3-56-27-61-8" />
    <path
       style="display:inline;fill:#808080;fill-opacity:1;stroke:none;stroke-width:1px;stroke-linecap:butt;stroke-linejoin:miter;stroke-opacity:1;font-variation-settings:normal;opacity:1;vector-effect:none;stroke-miterlimit:4;stroke-dasharray:none;stroke-dashoffset:0;-inkscape-stroke:none;stop-color:#000000;stop-opacity:1"
       d="m 80,112 h 6 c 0,0 0,3 0,7 0,4 -6,4 -6,0 0,-4 0,-7 0,-7 z"
       id="path536-3-56-27-61-9" />
    <path
       style="fill:#808080;stroke:none;stroke-width:1px;stroke-linecap:butt;stroke-linejoin:miter;stroke-opacity:1;font-variation-settings:normal;opacity:1;vector-effect:none;fill-opacity:1;stroke-miterlimit:4;stroke-dasharray:none;stroke-dashoffset:0;-inkscape-stroke:none;stop-color:#000000;stop-opacity:1"
       d="m 57,50 h 7 v -6 c 0,0 -7,0 -10,0 -3,0 -3,3 -3,3 0,0 0,31 0,34 0,3 3,3 3,3 0,0 17,0 20,0 3,0 3,-3 3,-3 0,0 0,-31 0,-34 0,-3 -3,-3 -3,-3 H 64 v 6 h 7 V 78 H 57 Z"
       id="path1526" />
  </g>
  <g
     inkscape:label="Top"
     inkscape:groupmode="layer"
     id="layer1"
     style="display:inline">
    <path
       style="fill:#808080;stroke:none;stroke-width:1px;stroke-linecap:butt;stroke-linejoin:miter;stroke-opacity:1;font-variation-settings:normal;opacity:1;vector-effect:none;fill-opacity:1;stroke-miterlimit:4;stroke-dasharray:none;stroke-dashoffset:0;-inkscape-stroke:none;stop-color:#000000;stop-opacity:1"
       d="m 40,24 h 24 v -8 c 0,0 -24,0 -28,0 -4,0 -4,4 -4,4 0,0 0,84 0,88 0,4 4,4 4,4 0,0 52,0 56,0 4,0 4,-4 4,-4 0,0 0,-84 0,-88 0,-4 -4,-4 -4,-4 H 64 v 8 h 24 v 80 H 40 Z"
       id="path1461" />
  </g>
</svg>
