<?xml version="1.0" encoding="UTF-8" standalone="no"?>
<!-- Created with Inkscape (http://www.inkscape.org/) -->

<svg
   width="128.0px"
   height="128.0px"
   viewBox="0 0 128.0 128.0"
   version="1.1"
   id="SVGRoot"
   sodipodi:docname="ram-symbolic.svg"
   inkscape:version="1.2 (1:1.2+202206011327+fc4e4096c5)"
   xmlns:inkscape="http://www.inkscape.org/namespaces/inkscape"
   xmlns:sodipodi="http://sodipodi.sourceforge.net/DTD/sodipodi-0.dtd"
   xmlns="http://www.w3.org/2000/svg"
   xmlns:svg="http://www.w3.org/2000/svg">
  <sodipodi:namedview
     id="namedview829"
     pagecolor="#343434"
     bordercolor="#666666"
     borderopacity="1.0"
     inkscape:pageshadow="2"
     inkscape:pageopacity="0"
     inkscape:pagecheckerboard="0"
     inkscape:document-units="px"
     showgrid="true"
     inkscape:zoom="4"
     inkscape:cx="66.5"
     inkscape:cy="63.5"
     inkscape:window-width="1280"
     inkscape:window-height="684"
     inkscape:window-x="0"
     inkscape:window-y="36"
     inkscape:window-maximized="1"
     inkscape:current-layer="layer1"
     inkscape:showpageshadow="2"
     inkscape:deskcolor="#343434">
    <inkscape:grid
       type="xygrid"
       id="grid892"
       empspacing="8" />
  </sodipodi:namedview>
  <defs
     id="defs824" />
  <g
     inkscape:groupmode="layer"
     id="layer2"
     inkscape:label="Surrounds"
     style="display:inline">
    <path
       style="fill:#808080;stroke:none;stroke-width:0;stroke-linecap:butt;stroke-linejoin:miter;stroke-opacity:1;fill-opacity:1;stroke-dasharray:none;font-variation-settings:normal;opacity:1;vector-effect:none;stroke-miterlimit:4;stroke-dashoffset:0;-inkscape-stroke:none;stop-color:#000000;stop-opacity:1"
       d="m 96,106 v 6 h 8 c 3,0 3,-3 3,-3 v 0 c 0,-3 -3,-3 -3,-3 z"
       id="path1312"
       sodipodi:nodetypes="ccscccc" />
    <path
       style="display:inline;fill:#808080;fill-opacity:1;stroke:none;stroke-width:0;stroke-linecap:butt;stroke-linejoin:miter;stroke-dasharray:none;stroke-opacity:1;font-variation-settings:normal;opacity:1;vector-effect:none;stroke-miterlimit:4;stroke-dashoffset:0;-inkscape-stroke:none;stop-color:#000000;stop-opacity:1"
       d="m 96,91 v 6 h 8 c 3,0 3,-3 3,-3 v 0 c 0,-3 -3,-3 -3,-3 z"
       id="path1312-3"
       sodipodi:nodetypes="ccscccc" />
    <path
       style="display:inline;fill:#808080;fill-opacity:1;stroke:none;stroke-width:0;stroke-linecap:butt;stroke-linejoin:miter;stroke-dasharray:none;stroke-opacity:1;font-variation-settings:normal;opacity:1;vector-effect:none;stroke-miterlimit:4;stroke-dashoffset:0;-inkscape-stroke:none;stop-color:#000000;stop-opacity:1"
       d="m 96,76 v 6 h 8 c 3,0 3,-3 3,-3 v 0 c 0,-3 -3,-3 -3,-3 z"
       id="path1312-6"
       sodipodi:nodetypes="ccscccc" />
    <path
       style="display:inline;fill:#808080;fill-opacity:1;stroke:none;stroke-width:0;stroke-linecap:butt;stroke-linejoin:miter;stroke-dasharray:none;stroke-opacity:1;font-variation-settings:normal;opacity:1;vector-effect:none;stroke-miterlimit:4;stroke-dashoffset:0;-inkscape-stroke:none;stop-color:#000000;stop-opacity:1"
       d="m 96,61 v 6 h 8 c 3,0 3,-3 3,-3 v 0 c 0,-3 -3,-3 -3,-3 z"
       id="path1312-0"
       sodipodi:nodetypes="ccscccc" />
    <path
       style="display:inline;fill:#808080;fill-opacity:1;stroke:none;stroke-width:0;stroke-linecap:butt;stroke-linejoin:miter;stroke-dasharray:none;stroke-opacity:1;font-variation-settings:normal;opacity:1;vector-effect:none;stroke-miterlimit:4;stroke-dashoffset:0;-inkscape-stroke:none;stop-color:#000000;stop-opacity:1"
       d="m 96,46 v 6 h 8 c 3,0 3,-3 3,-3 v 0 c 0,-3 -3,-3 -3,-3 z"
       id="path1312-62"
       sodipodi:nodetypes="ccscccc" />
    <path
       style="display:inline;fill:#808080;fill-opacity:1;stroke:none;stroke-width:0;stroke-linecap:butt;stroke-linejoin:miter;stroke-dasharray:none;stroke-opacity:1;font-variation-settings:normal;opacity:1;vector-effect:none;stroke-miterlimit:4;stroke-dashoffset:0;-inkscape-stroke:none;stop-color:#000000;stop-opacity:1"
       d="m 96,31 v 6 h 8 c 3,0 3,-3 3,-3 v 0 c 0,-3 -3,-3 -3,-3 z"
       id="path1312-61"
       sodipodi:nodetypes="ccscccc" />
    <path
       style="display:inline;fill:#808080;fill-opacity:1;stroke:none;stroke-width:0;stroke-linecap:butt;stroke-linejoin:miter;stroke-dasharray:none;stroke-opacity:1"
       d="m 96,16 v 6 h 8 c 3,0 3,-3 3,-3 v 0 c 0,-3 -3,-3 -3,-3 z"
       id="path1312-8"
       sodipodi:nodetypes="ccscccc" />
    <path
       style="fill:#808080;stroke:none;stroke-width:2.291;stroke-linecap:butt;stroke-linejoin:miter;stroke-opacity:1;font-variation-settings:normal;opacity:1;fill-opacity:1;stroke-miterlimit:4;stroke-dasharray:none;stroke-dashoffset:0;stop-color:#000000;stop-opacity:1"
       d="m 73,45 v 6 l -4,-3 z"
       id="path1414"
       sodipodi:nodetypes="cccc" />
    <path
       style="font-variation-settings:normal;display:inline;fill:#808080;fill-opacity:1;stroke:none;stroke-width:2.291;stroke-linecap:butt;stroke-linejoin:miter;stroke-miterlimit:4;stroke-dasharray:none;stroke-dashoffset:0;stroke-opacity:1;stop-color:#000000"
       d="m 73,61 v 6 l -4,-3 z"
       id="path1414-9"
       sodipodi:nodetypes="cccc" />
    <path
       style="font-variation-settings:normal;display:inline;fill:#808080;fill-opacity:1;stroke:none;stroke-width:2.291;stroke-linecap:butt;stroke-linejoin:miter;stroke-miterlimit:4;stroke-dasharray:none;stroke-dashoffset:0;stroke-opacity:1;stop-color:#000000"
       d="m 73,77 v 6 l -4,-3 z"
       id="path1414-2"
       sodipodi:nodetypes="cccc" />
    <path
       style="font-variation-settings:normal;display:inline;fill:#808080;fill-opacity:1;stroke:none;stroke-width:2.291;stroke-linecap:butt;stroke-linejoin:miter;stroke-miterlimit:4;stroke-dasharray:none;stroke-dashoffset:0;stroke-opacity:1;stop-color:#000000"
       d="m 55,83 v -6 l 4,3 z"
       id="path1414-23"
       sodipodi:nodetypes="cccc" />
    <path
       style="font-variation-settings:normal;display:inline;fill:#808080;fill-opacity:1;stroke:none;stroke-width:2.291;stroke-linecap:butt;stroke-linejoin:miter;stroke-miterlimit:4;stroke-dasharray:none;stroke-dashoffset:0;stroke-opacity:1;stop-color:#000000"
       d="m 55,67 v -6 l 4,3 z"
       id="path1414-23-7"
       sodipodi:nodetypes="cccc" />
    <path
       style="font-variation-settings:normal;display:inline;fill:#808080;fill-opacity:1;stroke:none;stroke-width:2.291;stroke-linecap:butt;stroke-linejoin:miter;stroke-miterlimit:4;stroke-dasharray:none;stroke-dashoffset:0;stroke-opacity:1;stop-color:#000000"
       d="m 55,51 v -6 l 4,3 z"
       id="path1414-23-5"
       sodipodi:nodetypes="cccc" />
  </g>
  <g
     inkscape:label="Top"
     inkscape:groupmode="layer"
     id="layer1"
     style="display:inline">
    <path
       style="fill:#808080;stroke:none;stroke-width:1px;stroke-linecap:butt;stroke-linejoin:miter;stroke-opacity:1;fill-opacity:1"
       d="M 40,16 H 64 V 8 c 0,0 -24,0 -28,0 -4,0 -4,4 -4,4 0,0 0,100 0,104 0,4 4,4 4,4 0,0 52,0 56,0 4,0 4,-4 4,-4 0,0 0,-100 0,-104 C 96,8 92,8 92,8 H 64 v 8 h 24 v 96 H 40 Z"
       id="path1710" />
    <path
       style="fill:#808080;stroke:none;stroke-width:1px;stroke-linecap:butt;stroke-linejoin:miter;stroke-opacity:1;font-variation-settings:normal;opacity:1;vector-effect:none;fill-opacity:1;stroke-miterlimit:4;stroke-dasharray:none;stroke-dashoffset:0;-inkscape-stroke:none;stop-color:#000000;stop-opacity:1"
       d="m 55,32 h 9 v -6 c 0,0 -9,0 -12,0 -3,0 -3,3 -3,3 0,0 0,67 0,70 0,3 3,3 3,3 0,0 21,0 24,0 3,0 3,-3 3,-3 0,0 0,-67 0,-70 0,-3 -3,-3 -3,-3 H 64 v 6 h 9 V 96 H 55 Z"
       id="path1733" />
  </g>
</svg>
