<?xml version="1.0" encoding="UTF-8" standalone="no"?>
<!-- Created with Inkscape (http://www.inkscape.org/) -->

<svg
   width="128.0px"
   height="128.0px"
   viewBox="0 0 128.0 128.0"
   version="1.1"
   id="SVGRoot"
   sodipodi:docname="ram-missing-symbolic.svg"
   inkscape:version="1.2.2 (1:1.2.2+202212051550+b0a8486541)"
   xmlns:inkscape="http://www.inkscape.org/namespaces/inkscape"
   xmlns:sodipodi="http://sodipodi.sourceforge.net/DTD/sodipodi-0.dtd"
   xmlns="http://www.w3.org/2000/svg"
   xmlns:svg="http://www.w3.org/2000/svg">
  <sodipodi:namedview
     id="namedview829"
     pagecolor="#343434"
     bordercolor="#666666"
     borderopacity="1.0"
     inkscape:pageshadow="2"
     inkscape:pageopacity="0"
     inkscape:pagecheckerboard="0"
     inkscape:document-units="px"
     showgrid="true"
     inkscape:zoom="2"
     inkscape:cx="80.75"
     inkscape:cy="44.5"
     inkscape:window-width="1280"
     inkscape:window-height="684"
     inkscape:window-x="0"
     inkscape:window-y="36"
     inkscape:window-maximized="1"
     inkscape:current-layer="layer1"
     inkscape:showpageshadow="2"
     inkscape:deskcolor="#343434">
    <inkscape:grid
       type="xygrid"
       id="grid892"
       empspacing="8" />
  </sodipodi:namedview>
  <defs
     id="defs824" />
  <g
     inkscape:groupmode="layer"
     id="layer2"
     inkscape:label="Surrounds"
     style="display:inline">
    <path
       style="fill:#808080;stroke:none;stroke-width:0;stroke-linecap:butt;stroke-linejoin:miter;stroke-opacity:1;fill-opacity:1;stroke-dasharray:none;font-variation-settings:normal;opacity:1;vector-effect:none;stroke-miterlimit:4;stroke-dashoffset:0;-inkscape-stroke:none;stop-color:#000000;stop-opacity:1"
       d="m 96,106 v 6 h 8 c 3,0 3,-3 3,-3 v 0 c 0,-3 -3,-3 -3,-3 z"
       id="path1312"
       sodipodi:nodetypes="ccscccc" />
    <path
       style="display:inline;fill:#808080;fill-opacity:1;stroke:none;stroke-width:0;stroke-linecap:butt;stroke-linejoin:miter;stroke-dasharray:none;stroke-opacity:1;font-variation-settings:normal;opacity:1;vector-effect:none;stroke-miterlimit:4;stroke-dashoffset:0;-inkscape-stroke:none;stop-color:#000000;stop-opacity:1"
       d="m 96,91 v 6 h 8 c 3,0 3,-3 3,-3 v 0 c 0,-3 -3,-3 -3,-3 z"
       id="path1312-3"
       sodipodi:nodetypes="ccscccc" />
    <path
       style="display:inline;fill:#808080;fill-opacity:1;stroke:none;stroke-width:0;stroke-linecap:butt;stroke-linejoin:miter;stroke-dasharray:none;stroke-opacity:1;font-variation-settings:normal;opacity:1;vector-effect:none;stroke-miterlimit:4;stroke-dashoffset:0;-inkscape-stroke:none;stop-color:#000000;stop-opacity:1"
       d="m 96,76 v 6 h 8 c 3,0 3,-3 3,-3 v 0 c 0,-3 -3,-3 -3,-3 z"
       id="path1312-6"
       sodipodi:nodetypes="ccscccc" />
    <path
       style="display:inline;fill:#808080;fill-opacity:1;stroke:none;stroke-width:0;stroke-linecap:butt;stroke-linejoin:miter;stroke-dasharray:none;stroke-opacity:1;font-variation-settings:normal;opacity:1;vector-effect:none;stroke-miterlimit:4;stroke-dashoffset:0;-inkscape-stroke:none;stop-color:#000000;stop-opacity:1"
       d="m 96,61 v 6 h 8 c 3,0 3,-3 3,-3 v 0 c 0,-3 -3,-3 -3,-3 z"
       id="path1312-0"
       sodipodi:nodetypes="ccscccc" />
    <path
       style="display:inline;fill:#808080;fill-opacity:1;stroke:none;stroke-width:0;stroke-linecap:butt;stroke-linejoin:miter;stroke-dasharray:none;stroke-opacity:1;font-variation-settings:normal;opacity:1;vector-effect:none;stroke-miterlimit:4;stroke-dashoffset:0;-inkscape-stroke:none;stop-color:#000000;stop-opacity:1"
       d="m 96,46 v 6 h 8 c 3,0 3,-3 3,-3 v 0 c 0,-3 -3,-3 -3,-3 z"
       id="path1312-62"
       sodipodi:nodetypes="ccscccc" />
    <path
       style="display:inline;fill:#808080;fill-opacity:1;stroke:none;stroke-width:0;stroke-linecap:butt;stroke-linejoin:miter;stroke-dasharray:none;stroke-opacity:1;font-variation-settings:normal;opacity:1;vector-effect:none;stroke-miterlimit:4;stroke-dashoffset:0;-inkscape-stroke:none;stop-color:#000000;stop-opacity:1"
       d="m 96,31 v 6 h 8 c 3,0 3,-3 3,-3 v 0 c 0,-3 -3,-3 -3,-3 z"
       id="path1312-61"
       sodipodi:nodetypes="ccscccc" />
    <path
       style="display:inline;fill:#808080;fill-opacity:1;stroke:none;stroke-width:0;stroke-linecap:butt;stroke-linejoin:miter;stroke-dasharray:none;stroke-opacity:1"
       d="m 96,16 v 6 h 8 c 3,0 3,-3 3,-3 v 0 c 0,-3 -3,-3 -3,-3 z"
       id="path1312-8"
       sodipodi:nodetypes="ccscccc" />
  </g>
  <g
     inkscape:label="Top"
     inkscape:groupmode="layer"
     id="layer1"
     style="display:inline">
    <path
       style="fill:#808080;stroke:none;stroke-width:1px;stroke-linecap:butt;stroke-linejoin:miter;stroke-opacity:1;fill-opacity:1"
       d="M 40,16 H 64 V 8 c 0,0 -24,0 -28,0 -4,0 -4,4 -4,4 0,0 0,100 0,104 0,4 4,4 4,4 0,0 52,0 56,0 4,0 4,-4 4,-4 0,0 0,-100 0,-104 C 96,8 92,8 92,8 H 64 v 8 h 24 v 96 H 40 Z"
       id="path1710" />
    <path
       d="m 65.18,40.796 c -2.132,0 -4.148,0.244 -6.048,0.732 a 23.412,23.412 0 0 0 -4.668,1.784 l -2.632,1.832 2.264,3.504 1.808,-1.344 c 2.752,-1.4 5.576,-2.16 8.464,-2.16 2.428,0 4.36,0.64 5.684,1.964 1.308,1.264 1.972,2.948 1.972,4.944 0,1.244 -0.292,2.412 -0.868,3.472 -0.52,1.032 -1.196,2.012 -2.032,2.944 -0.82,0.908 -1.68,1.82 -2.592,2.728 V 61.2 A 25.568,25.568 0 0 0 64,64 l -0.004,0.008 a 14.64,14.64 0 0 0 -1.968,3.144 9.512,9.512 0 0 0 -0.708,3.74 c 0,0.832 0.096,1.612 0.224,2.376 h 4.352 c -0.004,-0.092 -0.04,-0.176 -0.04,-0.272 v -0.748 c 0,-1.548 0.308,-2.96 0.928,-4.2 0.6,-1.256 1.344,-2.396 2.228,-3.42 L 69.02,64.62 c 0.872,-1.056 1.832,-2.06 2.884,-3.02 a 28.92,28.92 0 0 0 2.8,-2.936 c 0.84,-1.012 1.536,-2.088 2.108,-3.228 0.552,-1.152 0.836,-2.452 0.836,-3.928 A 12.24,12.24 0 0 0 77.06,47.852 L 77.056,47.844 V 47.836 A 8.16,8.16 0 0 0 75.128,44.368 C 74.192,43.348 72.92,42.504 71.3,41.848 V 41.84 C 69.76,41.152 67.72,40.796 65.188,40.796 Z M 64.1,80.648 c -1.304,0 -2.248,0.4 -2.972,1.2 a 4.1,4.1 0 0 0 -1.1,2.872 c 0,1.116 0.356,2.048 1.1,2.872 0.72,0.8 1.668,1.2 2.968,1.2 1.3,0 2.248,-0.396 2.972,-1.2 0.744,-0.824 1.1,-1.76 1.1,-2.872 0,-1.12 -0.356,-2.048 -1.1,-2.872 -0.72,-0.8 -1.672,-1.2 -2.972,-1.2 z"
       font-family="Ubuntu"
       font-size="72.036px"
       font-weight="500"
       letter-spacing="0"
       style="line-height:125%;-inkscape-font-specification:'Ubuntu Medium';text-align:center;display:inline;fill:#999999;fill-opacity:1;stroke-width:4"
       text-anchor="middle"
       word-spacing="0"
       id="path302" />
  </g>
</svg>
